<?xml version="1.0" encoding="UTF-8" standalone="no"?><!DOCTYPE svg PUBLIC "-//W3C//DTD SVG 1.1//EN" "http://www.w3.org/Graphics/SVG/1.1/DTD/svg11.dtd"><svg width="100%" height="100%" viewBox="0 0 78 78" version="1.1" xmlns="http://www.w3.org/2000/svg" xmlns:xlink="http://www.w3.org/1999/xlink" xml:space="preserve" xmlns:serif="http://www.serif.com/" style="fill-rule:evenodd;clip-rule:evenodd;stroke-linejoin:round;stroke-miterlimit:1.41421;"><g id="front-end"><path d="M5.948,29.154l0,-0.728l25.915,-26.167l0,26.895l-25.915,0Z" style="fill:#fee1ea;fill-rule:nonzero;"/><g><path d="M71.792,0l-39.929,0c-0.027,0 -0.054,0.003 -0.081,0.004c-0.026,0.001 -0.052,0.002 -0.078,0.004c-0.097,0.007 -0.194,0.018 -0.288,0.037c-0.002,0 -0.005,0.001 -0.007,0.002c-0.094,0.019 -0.185,0.046 -0.275,0.077c-0.024,0.008 -0.047,0.016 -0.071,0.025c-0.088,0.034 -0.175,0.071 -0.258,0.115c-0.004,0.002 -0.007,0.003 -0.011,0.005c-0.086,0.046 -0.168,0.1 -0.248,0.158c-0.02,0.014 -0.04,0.029 -0.061,0.045c-0.079,0.061 -0.156,0.126 -0.227,0.197l-25.915,26.168c-0.053,0.053 -0.103,0.109 -0.15,0.167c-0.033,0.04 -0.061,0.082 -0.09,0.123c-0.013,0.018 -0.028,0.036 -0.04,0.055c-0.034,0.05 -0.063,0.102 -0.092,0.155c-0.007,0.011 -0.014,0.022 -0.02,0.034c-0.028,0.053 -0.053,0.108 -0.077,0.164c-0.005,0.012 -0.011,0.023 -0.016,0.035c-0.022,0.053 -0.04,0.106 -0.057,0.16c-0.005,0.016 -0.012,0.032 -0.017,0.048c-0.015,0.049 -0.026,0.1 -0.037,0.15c-0.005,0.022 -0.011,0.043 -0.016,0.064c-0.009,0.047 -0.014,0.093 -0.02,0.14c-0.004,0.026 -0.009,0.053 -0.012,0.079c-0.004,0.046 -0.005,0.092 -0.006,0.138c-0.001,0.026 -0.004,0.051 -0.004,0.077l0,0.727c0,1.248 1.011,2.259 2.259,2.259l25.915,0c1.248,0 2.259,-1.011 2.259,-2.259l0,-24.636l35.411,0l0,24.281c0,1.247 1.012,2.259 2.259,2.259c1.248,0 2.259,-1.012 2.259,-2.259l0,-26.539c0,-1.248 -1.011,-2.259 -2.259,-2.259Zm-61.149,26.895l14.429,-14.57l4.532,-4.576l0,19.146l-18.961,0Z" style="fill:url(#_Linear1);fill-rule:nonzero;"/><path d="M14.444,51.198l10.837,-7.04c0.213,-0.171 0.512,-0.214 0.811,-0.214c1.28,0 2.901,1.365 2.901,3.115c0,0.725 -0.299,1.365 -0.768,1.664l-7.509,4.864l7.509,4.864c0.469,0.299 0.768,0.939 0.768,1.664c0,1.749 -1.621,3.114 -2.901,3.114c-0.299,0 -0.598,-0.042 -0.811,-0.213l-10.837,-7.04c-0.982,-0.64 -1.323,-1.664 -1.323,-2.389c0,-0.726 0.341,-1.749 1.323,-2.389Z" style="fill:url(#_Linear2);fill-rule:nonzero;"/><path d="M49.749,35.632c0,0.257 -0.043,0.555 -0.171,0.811l-15.018,30.763c-0.299,0.64 -1.109,1.066 -1.92,1.066c-1.451,0 -2.389,-1.194 -2.389,-2.261c0,-0.256 0.085,-0.554 0.213,-0.811l14.976,-30.762c0.341,-0.726 1.024,-1.067 1.792,-1.067c1.194,0 2.517,0.896 2.517,2.261Z" style="fill:url(#_Linear3);fill-rule:nonzero;"/><path d="M63.296,55.976l-10.837,7.041c-0.213,0.17 -0.512,0.213 -0.81,0.213c-1.28,0 -2.902,-1.366 -2.902,-3.115c0,-0.725 0.299,-1.365 0.768,-1.664l7.51,-4.864l-7.51,-4.864c-0.469,-0.298 -0.768,-0.938 -0.768,-1.664c0,-1.749 1.622,-3.114 2.902,-3.114c0.298,0 0.597,0.042 0.81,0.213l10.837,7.04c0.982,0.64 1.323,1.664 1.323,2.389c0,0.726 -0.341,1.749 -1.323,2.389Z" style="fill:url(#_Linear4);fill-rule:nonzero;"/><path d="M71.792,77.74l-65.844,0c-1.248,0 -2.259,-1.011 -2.259,-2.259l0,-31.952c0,-1.247 1.011,-2.258 2.259,-2.258c1.247,0 2.258,1.011 2.258,2.258l0,29.694l61.328,0l0,-29.028c0,-1.247 1.011,-2.258 2.258,-2.258c1.248,0 2.259,1.011 2.259,2.258l0,31.286c0,1.248 -1.011,2.259 -2.259,2.259Z" style="fill:url(#_Linear5);fill-rule:nonzero;"/></g></g><defs><linearGradient id="_Linear1" x1="0" y1="0" x2="1" y2="0" gradientUnits="userSpaceOnUse" gradientTransform="matrix(49.5664,-54.6413,54.6413,49.5664,15.4588,65.7054)"><stop offset="0" style="stop-color:#fb3775;stop-opacity:1"/><stop offset="1" style="stop-color:#e44eb1;stop-opacity:1"/></linearGradient><linearGradient id="_Linear2" x1="0" y1="0" x2="1" y2="0" gradientUnits="userSpaceOnUse" gradientTransform="matrix(49.5664,-54.6413,54.6413,49.5664,15.4588,65.7054)"><stop offset="0" style="stop-color:#fb3775;stop-opacity:1"/><stop offset="1" style="stop-color:#e44eb1;stop-opacity:1"/></linearGradient><linearGradient id="_Linear3" x1="0" y1="0" x2="1" y2="0" gradientUnits="userSpaceOnUse" gradientTransform="matrix(49.5664,-54.6413,54.6413,49.5664,15.4588,65.7054)"><stop offset="0" style="stop-color:#fb3775;stop-opacity:1"/><stop offset="1" style="stop-color:#e44eb1;stop-opacity:1"/></linearGradient><linearGradient id="_Linear4" x1="0" y1="0" x2="1" y2="0" gradientUnits="userSpaceOnUse" gradientTransform="matrix(49.5664,-54.6413,54.6413,49.5664,15.4588,65.7054)"><stop offset="0" style="stop-color:#fb3775;stop-opacity:1"/><stop offset="1" style="stop-color:#e44eb1;stop-opacity:1"/></linearGradient><linearGradient id="_Linear5" x1="0" y1="0" x2="1" y2="0" gradientUnits="userSpaceOnUse" gradientTransform="matrix(49.5664,-54.6413,54.6413,49.5664,15.4588,65.7054)"><stop offset="0" style="stop-color:#fb3775;stop-opacity:1"/><stop offset="1" style="stop-color:#e44eb1;stop-opacity:1"/></linearGradient></defs></svg>