<?xml version="1.0" encoding="UTF-8" standalone="no"?><!DOCTYPE svg PUBLIC "-//W3C//DTD SVG 1.1//EN" "http://www.w3.org/Graphics/SVG/1.1/DTD/svg11.dtd"><svg width="100%" height="100%" viewBox="0 0 74 74" version="1.1" xmlns="http://www.w3.org/2000/svg" xmlns:xlink="http://www.w3.org/1999/xlink" xml:space="preserve" xmlns:serif="http://www.serif.com/" style="fill-rule:evenodd;clip-rule:evenodd;stroke-linejoin:round;stroke-miterlimit:1.41421;"><clipPath id="_clip1"><rect id="browser" x="0" y="0" width="73.74" height="73.74"/></clipPath><g clip-path="url(#_clip1)"><g id="user-interface"><path d="M1.993,11.858l0,10.065l69.754,0l0,-10.065c0,-2.697 -2.186,-4.883 -4.883,-4.883l-59.988,0c-2.697,0 -4.883,2.186 -4.883,4.883Z" style="fill:#ffebf1;fill-rule:nonzero;"/><rect x="16.242" y="43.645" width="41.254" height="9.168" style="fill:#ffebf1;"/><g><path d="M57.497,54.806l-41.254,0c-1.101,0 -1.993,-0.892 -1.993,-1.993l0,-9.167c0,-1.101 0.892,-1.993 1.993,-1.993l41.254,0c1.101,0 1.993,0.892 1.993,1.993l0,9.167c0,1.101 -0.892,1.993 -1.993,1.993Zm-39.261,-3.985l37.268,0l0,-5.182l-37.268,0l0,5.182Z" style="fill:url(#_Linear2);fill-rule:nonzero;"/><path d="M51.493,37.069l-29.246,0c-1.101,0 -1.993,-0.892 -1.993,-1.993c0,-1.1 0.892,-1.993 1.993,-1.993l29.246,0c1.101,0 1.993,0.893 1.993,1.993c0,1.101 -0.892,1.993 -1.993,1.993Z" style="fill:url(#_Linear3);fill-rule:nonzero;"/><g><path d="M71.747,23.916l-69.754,0c-1.101,0 -1.993,-0.893 -1.993,-1.993l0,-10.065c0,-3.791 3.085,-6.876 6.876,-6.876l59.988,0c3.791,0 6.876,3.085 6.876,6.876l0,10.065c0,1.101 -0.892,1.993 -1.993,1.993Zm-67.761,-3.986l65.768,0l0,-8.072c0,-1.593 -1.296,-2.89 -2.89,-2.89l-59.988,0c-1.594,0 -2.89,1.297 -2.89,2.89l0,8.072Z" style="fill:url(#_Linear4);fill-rule:nonzero;"/><path d="M42.45,16.442l-3.787,0c-1.101,0 -1.993,-0.893 -1.993,-1.993c0,-1.101 0.892,-1.993 1.993,-1.993l3.787,0c1.1,0 1.993,0.892 1.993,1.993c0,1.1 -0.893,1.993 -1.993,1.993Z" style="fill:url(#_Linear5);fill-rule:nonzero;"/><path d="M53.012,16.442l-3.786,0c-1.101,0 -1.993,-0.893 -1.993,-1.993c0,-1.101 0.892,-1.993 1.993,-1.993l3.786,0c1.101,0 1.993,0.892 1.993,1.993c0,1.1 -0.892,1.993 -1.993,1.993Z" style="fill:url(#_Linear6);fill-rule:nonzero;"/><path d="M63.575,16.442l-3.787,0c-1.1,0 -1.993,-0.893 -1.993,-1.993c0,-1.101 0.893,-1.993 1.993,-1.993l3.787,0c1.1,0 1.993,0.892 1.993,1.993c0,1.1 -0.892,1.993 -1.993,1.993Z" style="fill:url(#_Linear7);fill-rule:nonzero;"/></g><path d="M66.864,68.758l-59.988,0c-3.791,0 -6.876,-3.085 -6.876,-6.877l0,-50.023c0,-3.791 3.085,-6.876 6.876,-6.876l59.988,0c3.791,0 6.876,3.085 6.876,6.876c0,1.101 -0.892,1.993 -1.993,1.993c-1.101,0 -1.993,-0.892 -1.993,-1.993c0,-1.593 -1.297,-2.89 -2.891,-2.89l-59.987,0c-1.594,0 -2.89,1.296 -2.89,2.89l0,50.023c0,1.594 1.296,2.891 2.89,2.891l59.988,0c1.593,0 2.89,-1.297 2.89,-2.891l0,-26.738c0,-1.1 0.892,-1.993 1.993,-1.993c1.101,0 1.993,0.893 1.993,1.993l0,26.738c0,3.792 -3.085,6.877 -6.876,6.877Z" style="fill:url(#_Linear8);fill-rule:nonzero;"/></g></g></g><defs><linearGradient id="_Linear2" x1="0" y1="0" x2="1" y2="0" gradientUnits="userSpaceOnUse" gradientTransform="matrix(50.3293,-44.9666,44.9666,50.3293,11.4752,58.5699)"><stop offset="0" style="stop-color:#fb3775;stop-opacity:1"/><stop offset="1" style="stop-color:#e44eb1;stop-opacity:1"/></linearGradient><linearGradient id="_Linear3" x1="0" y1="0" x2="1" y2="0" gradientUnits="userSpaceOnUse" gradientTransform="matrix(50.3293,-44.9666,44.9666,50.3293,11.4752,58.5699)"><stop offset="0" style="stop-color:#fb3775;stop-opacity:1"/><stop offset="1" style="stop-color:#e44eb1;stop-opacity:1"/></linearGradient><linearGradient id="_Linear4" x1="0" y1="0" x2="1" y2="0" gradientUnits="userSpaceOnUse" gradientTransform="matrix(50.3293,-44.9666,44.9666,50.3293,11.4752,58.5699)"><stop offset="0" style="stop-color:#fb3775;stop-opacity:1"/><stop offset="1" style="stop-color:#e44eb1;stop-opacity:1"/></linearGradient><linearGradient id="_Linear5" x1="0" y1="0" x2="1" y2="0" gradientUnits="userSpaceOnUse" gradientTransform="matrix(50.3293,-44.9666,44.9666,50.3293,11.4752,58.5699)"><stop offset="0" style="stop-color:#fb3775;stop-opacity:1"/><stop offset="1" style="stop-color:#e44eb1;stop-opacity:1"/></linearGradient><linearGradient id="_Linear6" x1="0" y1="0" x2="1" y2="0" gradientUnits="userSpaceOnUse" gradientTransform="matrix(50.3293,-44.9666,44.9666,50.3293,11.4752,58.5699)"><stop offset="0" style="stop-color:#fb3775;stop-opacity:1"/><stop offset="1" style="stop-color:#e44eb1;stop-opacity:1"/></linearGradient><linearGradient id="_Linear7" x1="0" y1="0" x2="1" y2="0" gradientUnits="userSpaceOnUse" gradientTransform="matrix(50.3293,-44.9666,44.9666,50.3293,11.4752,58.5699)"><stop offset="0" style="stop-color:#fb3775;stop-opacity:1"/><stop offset="1" style="stop-color:#e44eb1;stop-opacity:1"/></linearGradient><linearGradient id="_Linear8" x1="0" y1="0" x2="1" y2="0" gradientUnits="userSpaceOnUse" gradientTransform="matrix(50.3293,-44.9666,44.9666,50.3293,11.4752,58.5699)"><stop offset="0" style="stop-color:#fb3775;stop-opacity:1"/><stop offset="1" style="stop-color:#e44eb1;stop-opacity:1"/></linearGradient></defs></svg>