<?xml version="1.0" encoding="UTF-8" standalone="no"?><!DOCTYPE svg PUBLIC "-//W3C//DTD SVG 1.1//EN" "http://www.w3.org/Graphics/SVG/1.1/DTD/svg11.dtd"><svg width="100%" height="100%" viewBox="0 0 78 78" version="1.1" xmlns="http://www.w3.org/2000/svg" xmlns:xlink="http://www.w3.org/1999/xlink" xml:space="preserve" xmlns:serif="http://www.serif.com/" style="fill-rule:evenodd;clip-rule:evenodd;stroke-linejoin:round;stroke-miterlimit:1.41421;"><g id="user-experience"><path d="M22.842,4.505c9.569,0 13.862,5.363 15.551,8.513c0.102,0.19 0.288,0.286 0.477,0.293l0,59.924c-0.26,-0.004 -0.52,-0.078 -0.75,-0.224c-4.292,-2.723 -25.171,-21.22 -31.558,-32.016c-3.11,-5.256 -4.222,-9.966 -4.222,-15.464c0,-13.586 9.603,-21.026 20.502,-21.026Z" style="fill:#ffebf1;fill-rule:nonzero;"/><g><path d="M38.118,75.351c-0.429,0 -0.863,-0.117 -1.252,-0.364c-4.321,-2.742 -25.628,-21.492 -32.317,-32.8c-3.146,-5.317 -4.549,-10.454 -4.549,-16.656c0,-7.057 2.385,-13.042 6.896,-17.308c4.132,-3.907 9.795,-6.058 15.946,-6.058c8.602,0 13.449,3.89 16.048,7.312c2.593,-3.422 7.431,-7.312 16.023,-7.312c6.151,0 11.811,2.152 15.939,6.059c4.506,4.265 6.888,10.25 6.888,17.308c0,6.192 -1.405,11.329 -4.556,16.655c-3.117,5.269 -9.3,11.918 -13.938,16.569c-0.912,0.915 -2.394,0.917 -3.309,0.005c-0.915,-0.913 -0.917,-2.394 -0.004,-3.31c6.379,-6.397 10.952,-11.807 13.223,-15.647c2.737,-4.625 3.905,-8.894 3.905,-14.272c0,-12.909 -9.115,-18.687 -18.148,-18.687c-8.326,0 -12.005,4.558 -13.457,7.275c-0.505,0.946 -1.487,1.534 -2.561,1.535c-0.001,0 -0.002,0 -0.002,0c-1.074,0 -2.055,-0.587 -2.562,-1.531c-1.457,-2.718 -5.148,-7.279 -13.489,-7.279c-9.04,-0.001 -18.162,5.778 -18.162,18.686c0,5.388 1.165,9.657 3.896,14.273c6.231,10.532 26.805,28.698 30.798,31.232c1.091,0.692 1.414,2.138 0.722,3.229c-0.446,0.702 -1.204,1.086 -1.978,1.086Z" style="fill:url(#_Linear1);fill-rule:nonzero;"/><path d="M38.87,75.575c-0.013,0 -0.025,0 -0.037,0c-0.698,-0.012 -1.378,-0.215 -1.967,-0.588c-4.321,-2.742 -25.628,-21.492 -32.318,-32.801c-3.145,-5.316 -4.548,-10.453 -4.548,-16.655c0,-7.057 2.385,-13.042 6.896,-17.308c4.132,-3.907 9.795,-6.058 15.946,-6.058c10.234,0 15.154,5.507 17.295,9.179c0.647,0.417 1.073,1.144 1.073,1.967l0,59.924c0,0.627 -0.252,1.228 -0.699,1.668c-0.438,0.431 -1.027,0.672 -1.641,0.672Zm-16.028,-68.731c-9.04,0 -18.162,5.778 -18.162,18.687c0,5.388 1.165,9.657 3.896,14.273c5.288,8.938 20.908,23.376 27.954,29.089l0,-54.45c-0.072,-0.101 -0.139,-0.207 -0.198,-0.318c-1.459,-2.72 -5.15,-7.281 -13.49,-7.281Z" style="fill:url(#_Linear2);fill-rule:nonzero;"/></g></g><defs><linearGradient id="_Linear1" x1="0" y1="0" x2="1" y2="0" gradientUnits="userSpaceOnUse" gradientTransform="matrix(36.1229,-43.7711,43.7711,36.1229,20.6049,55.2235)"><stop offset="0" style="stop-color:#fb3775;stop-opacity:1"/><stop offset="1" style="stop-color:#e44eb1;stop-opacity:1"/></linearGradient><linearGradient id="_Linear2" x1="0" y1="0" x2="1" y2="0" gradientUnits="userSpaceOnUse" gradientTransform="matrix(36.1229,-43.7711,43.7711,36.1229,20.6049,55.2235)"><stop offset="0" style="stop-color:#fb3775;stop-opacity:1"/><stop offset="1" style="stop-color:#e44eb1;stop-opacity:1"/></linearGradient></defs></svg>